#!OML:ASF Y:\EmotionMaleHayes\Project 1\Capture day 1\Session 1\Male1.ASF
:FULLY-SPECIFIED
:DEGREES
252
root 17.5693 16.8145 -0.539752 -263.312 79.397 -271.551
lowerback 12.203 -1.60007 -13.795
upperback 1.72074 -3.83866 -0.616678
thorax -4.13921 -1.64714 7.67753
lowerneck -30.1503 4.98938 4.32412
upperneck 13.0549 6.38205 -6.4233
head 9.28801 2.45966 -1.91362
rclavicle 4.47266e-016 -5.56597e-015
rhumerus -80.9294 18.169 -94.0574
rradius 97.3533
rwrist -21.8675
rhand -26.9179 -23.0997
rfingers 7.12502
rthumb -0.340759 -53.0792
lclavicle 4.47266e-016 -5.56597e-015
lhumerus -49.094 -31.1208 106.605
lradius 109.497
lwrist 10.9789
lhand -38.0853 -45.637
lfingers 7.12502
lthumb -11.1215 -15.9517
rfemur -35.0703 -7.25917 11.8651
rtibia 29.9188
rfoot -9.2252 -2.3915
rtoes 16.3912
lfemur 18.2487 -2.65009 -31.7819
ltibia 56.897
lfoot 4.88279 3.3646
ltoes -16.3924
253
root 17.9795 16.6821 -0.543633 -265.448 79.329 -272.813
lowerback 12.9215 -1.25505 -13.5853
upperback 1.86752 -3.45306 -0.71973
thorax -4.48675 -1.43765 7.43499
lowerneck -29.4749 4.70172 4.07382
upperneck 12.7091 6.04128 -6.15754
head 9.02324 2.33859 -1.84341
rclavicle -1.95803e-014 3.69739e-014
rhumerus -78.7536 18.1475 -93.6403
rradius 96.601
rwrist -21.8655
rhand -27.7154 -22.7971
rfingers 7.12502
rthumb -1.11104 -52.774
lclavicle -1.95803e-014 3.69739e-014
lhumerus -50.1504 -30.3988 106.948
lradius 107.931
lwrist 11.2195
lhand -37.0507 -43.3561
lfingers 7.12502
lthumb -10.1236 -13.6196
rfemur -33.7377 -7.58181 12.0572
rtibia 31.4782
rfoot -11.0063 -2.40885
rtoes 13.8993
lfemur 17.4491 -1.9005 -31.6667
ltibia 61.6743
lfoot 4.25854 2.56507
ltoes -13.9664
254
root 18.3712 16.5482 -0.539954 -269.5 79.586 -275.829
lowerback 13.9984 -0.742429 -13.2496
upperback 2.07014 -2.8688 -0.683127
thorax -5.00879 -1.12328 7.24923
lowerneck -29.4064 4.66542 3.99115
upperneck 12.8813 6.01013 -6.04149
head 9.06445 2.33067 -1.79535
rclavicle 2.72335e-014 1.51076e-014
rhumerus -76.425 18.1487 -93.0383
rradius 96.3148
rwrist -21.3634
rhand -27.4058 -24.1529
rfingers 7.12502
rthumb -0.81202 -54.1311
lclavicle 2.72335e-014 1.51076e-014
lhumerus -50.9757 -29.4893 107.169
lradius 106.199
lwrist 11.6201
lhand -35.5025 -41.2788
lfingers 7.12502
lthumb -8.62975 -11.4752
rfemur -32.6976 -7.08496 12.6569
rtibia 34.1385
rfoot -12.7067 -2.95951
rtoes 12.7543
lfemur 16.7484 -0.701183 -30.9987
ltibia 66.3749
lfoot 6.13495 2.47244
ltoes -3.27992
255
root 18.7366 16.4044 -0.532755 -274.014 80.6102 -279.601
lowerback 15.0122 -0.261126 -12.1053
upperback 2.20175 -2.18125 -0.409272
thorax -5.61105 -0.77175 6.82708
lowerneck -29.8402 4.95406 3.78408
upperneck 13.5344 6.43536 -5.74446
head 9.36606 2.531 -1.58252
rclavicle 1.11319e-014 3.65764e-014
rhumerus -74.0147 18.0383 -92.5025
rradius 95.7886
rwrist -21.284
rhand -27.6066 -23.7647
rfingers 7.12502
rthumb -1.00597 -53.742
lclavicle 1.11319e-014 3.65764e-014
lhumerus -51.6637 -28.4162 107.367
lradius 104.3
lwrist 11.9327
lhand -33.7168 -39.2982
lfingers 7.12502
lthumb -6.9062 -9.43084
rfemur -32.5706 -5.76933 14.2128
rtibia 37.5201
rfoot -14.2895 -3.08365
rtoes 14.4615
lfemur 15.6581 0.542505 -29.2311
ltibia 70.9208
lfoot 4.3235 1.55396
ltoes -8.25648
256
root 19.0894 16.2629 -0.531274 -285.852 83.0549 -290.981
lowerback 15.8583 0.237485 -9.30413
upperback 2.25596 -1.13145 0.257769
thorax -6.281 -0.283791 5.78867
lowerneck -29.7181 4.77808 3.7381
upperneck 13.4573 6.19772 -5.65953
head 9.30273 2.43223 -1.58657
rclavicle 3.97569e-015 1.35174e-014
rhumerus -71.502 17.8426 -92.0336
rradius 95.2746
rwrist -21.1842
rhand -27.7522 -24.0682
rfingers 7.12502
rthumb -1.14656 -54.0448
lclavicle 3.97569e-015 1.35174e-014
lhumerus -52.2502 -27.2652 107.557
lradius 102.291
lwrist 12.1736
lhand -32.2232 -37.1739
lfingers 7.12502
lthumb -5.46427 -7.26438
rfemur -33.0156 -3.24629 17.7825
rtibia 41.1959
rfoot -16.1909 -4.62169
rtoes 12.9698
lfemur 14.2488 2.3335 -25.4509
ltibia 75.248
lfoot 4.04439 -0.338563
ltoes -7.68914
257
root 19.4557 16.1465 -0.545169 -321.045 85.5858 -325.585
lowerback 16.8522 0.699374 -5.19303
upperback 2.4177 0.198923 1.23385
thorax -6.87124 0.294569 4.2267
lowerneck -28.7946 4.574 3.10821
upperneck 12.3323 6.01329 -5.03195
head 8.70903 2.42695 -1.31148
rclavicle 1.13307e-014 -1.74931e-014
rhumerus -68.7628 17.6277 -91.4351
rradius 94.9299
rwrist -20.9082
rhand -27.9949 -24.4064
rfingers 7.12502
rthumb -1.38102 -54.3817
lclavicle 1.13307e-014 -1.74931e-014
lhumerus -52.6183 -26.0206 107.753
lradius 100.045
lwrist 12.4202
lhand -31.0538 -35.4033
lfingers 7.12502
lthumb -4.33512 -5.46764
rfemur -32.6173 -0.428838 22.7465
rtibia 44.2645
rfoot -18.3658 -4.58088
rtoes 13.0576
lfemur 13.1127 4.54453 -20.2139
ltibia 79.2479
lfoot 2.88733 -4.38973
ltoes -14.1709
258
root 19.8332 16.049 -0.539658 -369.7 85.6683 -373.398
lowerback 18.0257 0.938138 -1.66205
upperback 2.7597 1.23931 2.11554
thorax -7.20942 0.734606 2.91467
lowerneck -28.8426 4.4072 3.09815
upperneck 11.8939 5.78376 -5.0593
head 8.55475 2.32597 -1.35657
rclavicle -6.95746e-016 -2.74323e-014
rhumerus -65.6621 17.5142 -90.9231
rradius 94.2733
rwrist -20.5819
rhand -28.9842 -22.9294
rfingers 7.12502
rthumb -2.33647 -52.8964
lclavicle -6.95746e-016 -2.74323e-014
lhumerus -52.8875 -24.6626 107.734
lradius 97.6417
lwrist 12.5723
lhand -30.2456 -34.3439
lfingers 7.12502
lthumb -3.55459 -4.39376
rfemur -30.8084 1.5271 27.1741
rtibia 46.0485
rfoot -20.5938 -4.54064
rtoes 12.6689
lfemur 12.0572 6.0837 -15.2916
ltibia 83.5478
lfoot 12.0639 -33.8468
ltoes -13.2827
259
root 20.1948 15.9495 -0.527249 -391.65 84.1672 -394.788
lowerback 18.8927 1.18704 0.546363
upperback 3.11749 2.0786 2.65838
thorax -7.29263 1.10373 2.02432
lowerneck -29.4378 4.33992 3.53334
upperneck 11.7949 5.57362 -5.36811
head 8.62562 2.20832 -1.55942
rclavicle 5.56597e-015 -1.19271e-015
rhumerus -62.2019 17.5965 -90.5092
rradius 93.6567
rwrist -19.8256
rhand -29.6154 -22.5994
rfingers 7.12502
rthumb -2.94605 -52.5588
lclavicle 5.56597e-015 -1.19271e-015
lhumerus -53.1306 -23.3296 107.377
lradius 95.2547
lwrist 12.8751
lhand -29.9871 -33.4345
lfingers 7.12502
lthumb -3.30496 -3.48042
rfemur -28.8914 2.85825 30.2411
rtibia 47.1284
rfoot -22.6455 -4.47014
rtoes 11.9039
lfemur 10.1512 7.52273 -11.7752
ltibia 86.7967
lfoot 32.2294 -61.9348
ltoes -8.44082
260
root 20.5521 15.8657 -0.514837 -400.017 82.903 -402.811
lowerback 19.5383 1.37626 1.89234
upperback 3.42548 2.6681 3.00968
thorax -7.28532 1.37153 1.47783
lowerneck -30.2732 4.23409 4.03859
upperneck 11.9508 5.28553 -5.70006
head 8.81866 2.04554 -1.79429
rclavicle -5.1684e-015 -2.54444e-014
rhumerus -58.6119 17.8931 -90.0799
rradius 93.4397
rwrist -19.525
rhand -29.7645 -24.1866
rfingers 7.12502
rthumb -3.09005 -54.1439
lclavicle -5.1684e-015 -2.54444e-014
lhumerus -53.4925 -21.9822 106.772
lradius 92.9197
lwrist 13.3212
lhand -30.5687 -32.6072
lfingers 7.12502
lthumb -3.86669 -2.66257
rfemur -26.8156 3.46683 32.2634
rtibia 47.4373
rfoot -24.266 -4.48926
rtoes 10.603
lfemur 7.58722 8.79422 -9.41149
ltibia 86.7614
lfoot 115.952 -74.0705
ltoes -10.0185
